<mxfile host="app.diagrams.net" modified="2024-04-28T15:35:10.949Z" agent="Mozilla/5.0 (Windows NT 10.0; Win64; x64) AppleWebKit/537.36 (KHTML, like Gecko) Chrome/124.0.0.0 Safari/537.36" etag="Ap7K9hRPUkMbRoXoVGjp" version="24.3.1" type="google">
  <diagram name="Page-1" id="YP5UjL32gfOZzYR_MuLs">
    <mxGraphModel grid="1" page="1" gridSize="10" guides="1" tooltips="1" connect="1" arrows="1" fold="1" pageScale="1" pageWidth="850" pageHeight="1100" background="#FFFFFF" math="0" shadow="0">
      <root>
        <mxCell id="0" />
        <mxCell id="1" parent="0" />
        <mxCell id="B3XmTMiXGOnF1Q8Z-8_W-2" value="" style="endArrow=classic;html=1;rounded=0;labelBackgroundColor=none;strokeColor=#736CA8;strokeWidth=2;fontColor=default;" edge="1" parent="1" target="B3XmTMiXGOnF1Q8Z-8_W-3">
          <mxGeometry width="50" height="50" relative="1" as="geometry">
            <mxPoint x="200" y="80" as="sourcePoint" />
            <mxPoint x="280" y="80" as="targetPoint" />
            <Array as="points">
              <mxPoint x="220" y="80" />
            </Array>
          </mxGeometry>
        </mxCell>
        <mxCell id="B3XmTMiXGOnF1Q8Z-8_W-12" style="edgeStyle=orthogonalEdgeStyle;rounded=0;orthogonalLoop=1;jettySize=auto;html=1;exitX=1;exitY=0.5;exitDx=0;exitDy=0;entryX=0;entryY=0.5;entryDx=0;entryDy=0;labelBackgroundColor=none;strokeColor=#736CA8;strokeWidth=2;fontColor=default;" edge="1" parent="1" source="B3XmTMiXGOnF1Q8Z-8_W-3" target="B3XmTMiXGOnF1Q8Z-8_W-7">
          <mxGeometry relative="1" as="geometry" />
        </mxCell>
        <mxCell id="B3XmTMiXGOnF1Q8Z-8_W-13" style="edgeStyle=orthogonalEdgeStyle;rounded=0;orthogonalLoop=1;jettySize=auto;html=1;exitX=1;exitY=0.5;exitDx=0;exitDy=0;entryX=0;entryY=0.5;entryDx=0;entryDy=0;labelBackgroundColor=none;strokeColor=#736CA8;strokeWidth=2;fontColor=default;" edge="1" parent="1" source="B3XmTMiXGOnF1Q8Z-8_W-3" target="B3XmTMiXGOnF1Q8Z-8_W-8">
          <mxGeometry relative="1" as="geometry" />
        </mxCell>
        <mxCell id="B3XmTMiXGOnF1Q8Z-8_W-3" value="&lt;b&gt;Data Pre-Processing&lt;/b&gt;&lt;div&gt;&lt;b&gt;&lt;br&gt;&lt;/b&gt;&lt;/div&gt;&lt;div&gt;-Data Cleaning&lt;/div&gt;&lt;div&gt;-Encoding&lt;/div&gt;" style="rounded=0;whiteSpace=wrap;html=1;labelBackgroundColor=none;strokeColor=#D0CEE2;fillColor=#5D7F99;fontColor=#1A1A1A;" vertex="1" parent="1">
          <mxGeometry x="240" y="40" width="130" height="80" as="geometry" />
        </mxCell>
        <mxCell id="Ug4tno5CdQKPfe8nXXJB-2" style="edgeStyle=orthogonalEdgeStyle;rounded=0;orthogonalLoop=1;jettySize=auto;html=1;exitX=1;exitY=0.5;exitDx=0;exitDy=0;labelBackgroundColor=none;strokeColor=#736CA8;strokeWidth=2;fontColor=default;" edge="1" parent="1" source="B3XmTMiXGOnF1Q8Z-8_W-4" target="B3XmTMiXGOnF1Q8Z-8_W-6">
          <mxGeometry relative="1" as="geometry" />
        </mxCell>
        <mxCell id="B3XmTMiXGOnF1Q8Z-8_W-4" value="&lt;b&gt;Boosting Algoritm&lt;/b&gt;&lt;div&gt;&lt;b&gt;&lt;br&gt;&lt;/b&gt;&lt;/div&gt;&lt;div&gt;- Adaboost Classifier&lt;/div&gt;&lt;div&gt;- Gradient Boosting Classifier&lt;/div&gt;&lt;div&gt;- Light GBM Classifier&lt;/div&gt;&lt;div&gt;- Catboost Classifier&lt;/div&gt;&lt;div&gt;&lt;br&gt;&lt;/div&gt;" style="rounded=0;whiteSpace=wrap;html=1;labelBackgroundColor=none;fillColor=#5D7F99;strokeColor=#D0CEE2;fontColor=#1A1A1A;" vertex="1" parent="1">
          <mxGeometry x="110" y="190" width="160" height="120" as="geometry" />
        </mxCell>
        <mxCell id="B3XmTMiXGOnF1Q8Z-8_W-6" value="Evaluation" style="rounded=0;whiteSpace=wrap;html=1;labelBackgroundColor=none;strokeColor=#D0CEE2;fillColor=#5D7F99;fontColor=#1A1A1A;" vertex="1" parent="1">
          <mxGeometry x="320" y="220" width="120" height="60" as="geometry" />
        </mxCell>
        <mxCell id="B3XmTMiXGOnF1Q8Z-8_W-14" style="edgeStyle=orthogonalEdgeStyle;rounded=0;orthogonalLoop=1;jettySize=auto;html=1;exitX=0.5;exitY=1;exitDx=0;exitDy=0;entryX=0.5;entryY=0;entryDx=0;entryDy=0;labelBackgroundColor=none;strokeColor=#736CA8;strokeWidth=2;fontColor=default;" edge="1" parent="1" source="B3XmTMiXGOnF1Q8Z-8_W-7" target="B3XmTMiXGOnF1Q8Z-8_W-8">
          <mxGeometry relative="1" as="geometry" />
        </mxCell>
        <mxCell id="B3XmTMiXGOnF1Q8Z-8_W-7" value="Random Over-Sampling (ROS)" style="rounded=0;whiteSpace=wrap;html=1;strokeColor=#D0CEE2;labelBackgroundColor=none;fillColor=#5D7F99;fontColor=#1A1A1A;" vertex="1" parent="1">
          <mxGeometry x="440" width="100" height="60" as="geometry" />
        </mxCell>
        <mxCell id="Ug4tno5CdQKPfe8nXXJB-1" style="edgeStyle=orthogonalEdgeStyle;rounded=0;orthogonalLoop=1;jettySize=auto;html=1;exitX=1;exitY=0.5;exitDx=0;exitDy=0;entryX=0;entryY=0.5;entryDx=0;entryDy=0;strokeColor=#736CA8;strokeWidth=2;labelBackgroundColor=none;fontColor=default;" edge="1" parent="1" source="B3XmTMiXGOnF1Q8Z-8_W-8" target="B3XmTMiXGOnF1Q8Z-8_W-4">
          <mxGeometry relative="1" as="geometry" />
        </mxCell>
        <mxCell id="B3XmTMiXGOnF1Q8Z-8_W-8" value="Data Splitting" style="rounded=0;whiteSpace=wrap;html=1;labelBackgroundColor=none;fillColor=#5D7F99;strokeColor=#D0CEE2;fontColor=#1A1A1A;" vertex="1" parent="1">
          <mxGeometry x="440" y="100" width="100" height="50" as="geometry" />
        </mxCell>
        <mxCell id="B3XmTMiXGOnF1Q8Z-8_W-9" value="&lt;div&gt;&lt;br&gt;&lt;/div&gt;&lt;div&gt;&lt;br&gt;&lt;/div&gt;Orange Quality Dataset" style="strokeWidth=2;html=1;shape=mxgraph.flowchart.database;whiteSpace=wrap;labelBackgroundColor=none;fillColor=#5D7F99;strokeColor=#D0CEE2;fontColor=#1A1A1A;" vertex="1" parent="1">
          <mxGeometry x="110" y="30" width="90" height="100" as="geometry" />
        </mxCell>
      </root>
    </mxGraphModel>
  </diagram>
</mxfile>
